 <svg  version="1.0" xmlns="http://www.w3.org/2000/svg"  width="390.000000pt" height="326.000000pt" viewBox="0 0 390.000000 326.000000"  preserveAspectRatio="xMidYMid meet">  <g transform="translate(0.000000,326.000000) scale(0.100000,-0.100000)" fill="#000000" stroke="none"> <path d="M782 3078 c-7 -7 -12 -24 -12 -38 0 -14 47 -201 104 -415 57 -215 101 -393 97 -397 -3 -3 -154 -45 -336 -93 -181 -48 -340 -94 -352 -101 -27 -17 -30 -45 -5 -66 30 -26 919 -538 934 -538 16 0 50 34 67 67 16 31 14 58 -6 76 -10 8 -148 90 -308 182 -331 190 -338 195 -332 201 4 5 395 114 408 114 3 0 4 -13 1 -28 -6 -41 57 -273 80 -297 19 -20 19 -20 43 9 35 44 325 550 325 568 0 37 -23 37 -185 -7 -88 -23 -161 -42 -161 -41 -1 0 -45 163 -98 361 -53 197 -104 367 -113 377 -16 18 -117 78 -131 78 -4 0 -13 -5 -20 -12z m83 -49 c30 -17 55 -32 55 -34 0 -10 200 -749 204 -752 2 -3 80 16 173 40 92 25 169 44 170 43 4 -4 -321 -566 -327 -566 -3 0 -20 55 -38 123 -17 67 -35 132 -38 144 -5 19 0 23 36 33 24 6 53 9 66 6 20 -5 27 0 43 33 11 21 18 41 15 44 -3 2 -62 -10 -132 -29 -411 -109 -517 -140 -517 -152 0 -6 153 -100 340 -208 187 -107 344 -199 348 -204 12 -11 -30 -90 -48 -90 -12 0 -918 520 -934 536 -2 2 -2 7 2 10 3 3 165 49 359 100 194 52 357 99 361 103 5 5 -41 196 -102 426 -61 229 -111 418 -111 421 0 10 24 2 75 -27z"/> <path d="M2510 2833 c-596 -343 -565 -323 -568 -358 -3 -32 28 -89 59 -108 12 -8 92 34 348 182 183 106 334 191 336 189 1 -2 -23 -96 -53 -210 -54 -201 -57 -207 -75 -190 -10 9 -80 33 -155 54 -141 38 -162 38 -162 -3 0 -21 291 -533 321 -563 15 -16 20 -17 34 -6 25 20 35 45 61 144 14 50 29 108 35 129 5 20 15 37 22 37 7 0 175 -43 374 -96 l362 -97 63 39 c67 42 82 69 51 96 -10 8 -193 61 -408 118 -214 57 -394 106 -398 110 -5 4 32 160 82 346 50 187 91 348 91 360 0 22 -18 44 -34 44 -6 0 -180 -98 -386 -217z m397 175 c-18 -50 -188 -703 -185 -716 3 -13 93 -41 418 -128 227 -60 415 -114 417 -120 1 -5 -23 -24 -55 -43 l-57 -33 -375 100 c-221 60 -379 97 -384 92 -5 -5 -27 -77 -50 -161 -23 -84 -46 -154 -51 -155 -10 -4 -330 544 -323 551 7 7 283 -72 283 -81 -2 -41 -19 -94 -31 -94 -8 0 -14 -6 -14 -12 0 -17 37 -78 47 -78 6 0 152 522 181 646 2 8 -1 14 -6 14 -6 0 -166 -90 -357 -200 -190 -110 -351 -200 -356 -200 -11 0 -55 87 -48 94 2 3 166 98 364 212 198 114 405 234 460 266 100 57 131 69 122 46z"/> <path d="M1697 2543 c-27 -31 -487 -835 -487 -853 0 -20 33 -52 80 -75 l34 -18 21 27 c11 15 125 208 253 429 161 278 232 410 230 426 -2 17 -17 33 -48 52 -54 33 -62 34 -83 12z m71 -35 c23 -13 42 -26 42 -30 0 -6 -476 -835 -486 -847 -4 -4 -94 48 -94 54 0 10 484 845 490 845 3 0 24 -10 48 -22z"/> <path d="M2099 2360 c-47 -25 -62 -45 -57 -73 6 -31 454 -805 483 -836 22 -22 26 -23 55 -11 46 19 80 49 80 70 0 19 -458 820 -487 853 -20 21 -29 21 -74 -3z m300 -431 c226 -393 241 -422 224 -434 -31 -24 -74 -38 -82 -29 -14 15 -481 826 -481 835 0 9 68 48 85 49 6 0 120 -189 254 -421z"/> <path d="M1878 2163 c-34 -37 -328 -548 -328 -571 0 -41 11 -42 355 -42 347 0 355 1 355 45 0 20 -296 542 -327 577 -21 24 -25 23 -55 -9z m198 -280 c87 -152 160 -282 162 -290 3 -11 -56 -13 -332 -13 -185 0 -336 3 -336 6 0 7 308 543 323 562 5 6 13 12 16 12 4 0 79 -124 167 -277z"/> <path d="M1282 1348 c-7 -7 -12 -39 -12 -73 0 -34 5 -66 12 -73 17 -17 979 -17 996 0 16 16 16 130 0 146 -17 17 -979 17 -996 0z m988 -73 l0 -55 -490 0 -490 0 0 55 0 55 490 0 490 0 0 -55z"/> <path d="M2357 1342 c-15 -17 -17 -59 -17 -398 l0 -379 -150 150 -149 149 27 17 c46 28 202 195 202 216 0 42 -10 43 -345 43 -336 0 -345 -1 -345 -44 0 -11 46 -66 112 -133 l112 -113 -267 -268 -267 -269 0 -85 c0 -93 12 -119 47 -99 10 5 151 143 313 305 l295 296 265 -265 c146 -146 271 -265 277 -265 7 0 19 10 27 22 14 20 16 90 16 564 0 511 -1 542 -18 557 -26 24 -113 23 -135 -1z m123 -562 c0 -302 -3 -550 -8 -550 -4 0 -129 122 -277 270 l-270 270 -310 -310 c-171 -170 -313 -310 -318 -310 -4 0 -7 33 -7 72 l0 73 277 277 277 278 -122 123 c-67 67 -122 126 -122 130 0 4 146 7 325 7 179 0 325 -3 325 -7 0 -11 -193 -203 -204 -203 -18 0 -76 63 -76 82 0 15 -8 18 -45 18 -25 0 -45 -3 -45 -8 0 -14 476 -483 483 -476 4 4 7 189 7 411 l0 403 55 0 55 0 0 -550z"/> </g> </svg> 